<?xml version="1.0" standalone="no"?><!DOCTYPE svg PUBLIC "-//W3C//DTD SVG 1.1//EN" "http://www.w3.org/Graphics/SVG/1.1/DTD/svg11.dtd"><svg t="1518161436546" class="icon" style="" viewBox="0 0 1024 1024" version="1.1" xmlns="http://www.w3.org/2000/svg" p-id="1611" xmlns:xlink="http://www.w3.org/1999/xlink" width="200" height="200"><defs><style type="text/css"></style></defs><path d="M488.727273 977.454545C218.763636 977.454545 0 758.690909 0 488.727273S218.763636 0 488.727273 0 977.454545 218.763636 977.454545 488.727273 758.690909 977.454545 488.727273 977.454545z m0-930.90909C246.690909 46.545455 46.545455 246.690909 46.545455 488.727273S246.690909 930.909091 488.727273 930.909091s442.181818-200.145455 442.181818-442.181818S730.763636 46.545455 488.727273 46.545455z" p-id="1612"></path><path d="M125.672727 563.2l102.4-265.309091h37.236364L372.363636 563.2h-37.236363l-32.581818-79.127273H195.490909l-27.927273 79.127273h-41.890909z m79.127273-107.054545h88.436364l-27.927273-74.472728c-9.309091-23.272727-13.963636-41.890909-18.618182-55.854545-4.654545 18.618182-9.309091 32.581818-13.963636 51.2l-27.927273 79.127273zM400.290909 637.672727V372.363636h27.927273v23.272728c9.309091-9.309091 13.963636-18.618182 23.272727-23.272728s18.618182-9.309091 32.581818-9.309091c18.618182 0 32.581818 4.654545 41.890909 13.963637 13.963636 9.309091 23.272727 18.618182 27.927273 37.236363 4.654545 13.963636 9.309091 32.581818 9.309091 51.2 0 18.618182-4.654545 37.236364-9.309091 51.2-9.309091 13.963636-18.618182 27.927273-32.581818 37.236364-13.963636 9.309091-27.927273 13.963636-41.890909 13.963636-9.309091 0-18.618182 0-27.927273-4.654545s-13.963636-9.309091-23.272727-18.618182v93.090909h-27.927273z m27.927273-167.563636c0 23.272727 4.654545 41.890909 13.963636 55.854545s23.272727 18.618182 37.236364 18.618182c13.963636 0 27.927273-4.654545 37.236363-18.618182 9.309091-13.963636 13.963636-32.581818 13.963637-55.854545s-4.654545-41.890909-13.963637-55.854546c-9.309091-13.963636-23.272727-18.618182-37.236363-18.618181-13.963636 0-27.927273 4.654545-37.236364 18.618181s-13.963636 32.581818-13.963636 55.854546zM605.090909 637.672727V372.363636h27.927273v23.272728c9.309091-9.309091 13.963636-18.618182 23.272727-23.272728 9.309091-4.654545 18.618182-9.309091 32.581818-9.309091 18.618182 0 32.581818 4.654545 41.890909 13.963637 13.963636 9.309091 23.272727 18.618182 27.927273 37.236363 4.654545 13.963636 9.309091 32.581818 9.309091 51.2 0 18.618182-4.654545 37.236364-9.309091 51.2-9.309091 13.963636-18.618182 27.927273-32.581818 37.236364-13.963636 9.309091-27.927273 13.963636-41.890909 13.963636-9.309091 0-18.618182 0-27.927273-4.654545-9.309091-4.654545-13.963636-9.309091-23.272727-18.618182v93.090909H605.090909z m32.581818-167.563636c0 23.272727 4.654545 41.890909 13.963637 55.854545 9.309091 13.963636 23.272727 18.618182 37.236363 18.618182 13.963636 0 27.927273-4.654545 37.236364-18.618182s13.963636-32.581818 13.963636-55.854545-4.654545-41.890909-13.963636-55.854546c-9.309091-13.963636-23.272727-18.618182-37.236364-18.618181-13.963636 0-27.927273 4.654545-37.236363 18.618181s-13.963636 32.581818-13.963637 55.854546z" p-id="1613"></path></svg>