<?xml version="1.0" standalone="no"?><!DOCTYPE svg PUBLIC "-//W3C//DTD SVG 1.1//EN" "http://www.w3.org/Graphics/SVG/1.1/DTD/svg11.dtd"><svg t="1518161513698" class="icon" style="" viewBox="0 0 1024 1024" version="1.1" xmlns="http://www.w3.org/2000/svg" p-id="1962" xmlns:xlink="http://www.w3.org/1999/xlink" width="200" height="200"><defs><style type="text/css"></style></defs><path d="M698.181818 558.545455H325.818182v-46.545455h372.363636zM698.181818 744.727273H325.818182v-46.545455h372.363636zM698.181818 372.363636H325.818182V325.818182h372.363636z" p-id="1963"></path><path d="M93.090909 884.363636V139.636364a93.090909 93.090909 0 0 1 93.090909-93.090909h139.636364v46.545454H186.181818a46.545455 46.545455 0 0 0-46.545454 46.545455v744.727272a46.545455 46.545455 0 0 0 46.545454 46.545455h651.636364a46.545455 46.545455 0 0 0 46.545454-46.545455V139.636364a46.545455 46.545455 0 0 0-46.545454-46.545455h-139.636364V46.545455h139.636364a93.090909 93.090909 0 0 1 93.090909 93.090909v744.727272a93.090909 93.090909 0 0 1-93.090909 93.090909H186.181818a93.090909 93.090909 0 0 1-93.090909-93.090909z" p-id="1964"></path><path d="M605.090909 93.090909H418.909091V46.545455h186.181818z" p-id="1965"></path></svg>