<?xml version="1.0" standalone="no"?><!DOCTYPE svg PUBLIC "-//W3C//DTD SVG 1.1//EN" "http://www.w3.org/Graphics/SVG/1.1/DTD/svg11.dtd"><svg t="1517295362947" class="icon" style="" viewBox="0 0 1024 1024" version="1.1" xmlns="http://www.w3.org/2000/svg" p-id="1156" xmlns:xlink="http://www.w3.org/1999/xlink" width="200" height="200"><defs><style type="text/css"></style></defs><path d="M870.4 110.933333h-256v53.333334h256c23.466667 0 42.666667 14.933333 42.666667 34.133333V874.666667c0 19.2-19.2 34.133333-42.666667 34.133333H153.6c-23.466667 0-42.666667-14.933333-42.666667-34.133333V196.266667c0-19.2 19.2-34.133333 42.666667-34.133334h192l-38.4 25.6 29.866667 44.8L448 160c6.4-4.266667 10.666667-12.8 12.8-21.333333 0-8.533333-4.266667-17.066667-10.666667-21.333334l-110.933333-81.066666-32 42.666666 44.8 32H153.6c-53.333333 0-96 38.4-96 85.333334V874.666667c0 49.066667 42.666667 87.466667 96 87.466666h716.8c53.333333 0 96-38.4 96-87.466666V196.266667c0-46.933333-42.666667-85.333333-96-85.333334z" fill="" p-id="1157"></path><path d="M695.466667 582.4h-153.6v-78.933333h147.2v-59.733334h-130.133334l108.8-108.8-38.4-38.4-117.333333 117.333334-117.333333-117.333334-38.4 38.4 108.8 108.8h-130.133334v59.733334h147.2v78.933333h-153.6v61.866667h153.6v174.933333h59.733334v-174.933333h153.6z" fill="" p-id="1158"></path></svg>