<?xml version="1.0" standalone="no"?><!DOCTYPE svg PUBLIC "-//W3C//DTD SVG 1.1//EN" "http://www.w3.org/Graphics/SVG/1.1/DTD/svg11.dtd"><svg t="1518161508157" class="icon" style="" viewBox="0 0 1024 1024" version="1.1" xmlns="http://www.w3.org/2000/svg" p-id="1845" xmlns:xlink="http://www.w3.org/1999/xlink" width="200" height="200"><defs><style type="text/css"></style></defs><path d="M679.563636 563.2c-46.545455 18.618182-74.472727 60.509091-74.472727 107.054545 0 65.163636 51.2 116.363636 116.363636 121.018182 46.545455 0 93.090909-27.927273 111.709091-69.818182s9.309091-93.090909-23.272727-130.327272c-37.236364-37.236364-88.436364-46.545455-130.327273-27.927273z m41.890909 181.527273c-27.927273 0-55.854545-13.963636-69.818181-41.890909-13.963636-27.927273-4.654545-55.854545 13.963636-79.127273s51.2-27.927273 79.127273-18.618182 46.545455 37.236364 46.545454 65.163636c0 41.890909-32.581818 74.472727-69.818182 74.472728z" p-id="1846"></path><path d="M930.909091 372.363636h-65.163636c4.654545-23.272727-4.654545-46.545455-23.272728-65.163636l-214.109091-204.8c-13.963636-13.963636-32.581818-23.272727-55.854545-23.272727-18.618182 0-41.890909 9.309091-55.854546 23.272727L460.8 158.254545 409.6 139.636364l-27.927273-9.309091-46.545454-18.618182c-9.309091-4.654545-18.618182-4.654545-27.927273-4.654546-27.927273 0-55.854545 13.963636-65.163636 41.89091L144.290909 372.363636H93.090909c-27.927273 0-46.545455 18.618182-46.545454 46.545455v512c0 27.927273 18.618182 46.545455 46.545454 46.545454h837.818182c27.927273 0 46.545455-18.618182 46.545454-46.545454V418.909091c0-27.927273-18.618182-46.545455-46.545454-46.545455z m-381.672727-237.381818c4.654545-4.654545 13.963636-9.309091 23.272727-9.309091s18.618182 4.654545 23.272727 9.309091l214.109091 209.454546c4.654545 4.654545 9.309091 13.963636 9.309091 23.272727V372.363636H311.854545l162.909091-162.909091 18.618182-18.618181 55.854546-55.854546z m-265.309091 32.581818c4.654545-9.309091 13.963636-13.963636 23.272727-13.963636 4.654545 0 9.309091 0 9.309091 4.654545l46.545454 18.618182 32.581819 9.309091 27.927272 9.309091-176.872727 172.218182 4.654546 4.654545H195.490909l88.436364-204.8zM930.909091 930.909091H93.090909V418.909091h837.818182v512z" p-id="1847"></path></svg>