<?xml version="1.0" standalone="no"?><!DOCTYPE svg PUBLIC "-//W3C//DTD SVG 1.1//EN" "http://www.w3.org/Graphics/SVG/1.1/DTD/svg11.dtd"><svg t="1518166886578" class="icon" style="" viewBox="0 0 1050 1024" version="1.1" xmlns="http://www.w3.org/2000/svg" p-id="1061" xmlns:xlink="http://www.w3.org/1999/xlink" width="205.078125" height="200"><defs><style type="text/css"></style></defs><path d="M880.64 130.784c25.696 12.576 48.096 30.496 64.512 52.48 34.528 46.304 44.224 109.376 28.832 187.456-15.552 79.04-50.4 145.728-101.152 194.048-9.28 9.696-19.232 18.752-29.792 27.072-54.368 42.816-123.008 65.44-198.496 65.44l-12.128 0L404.448 657.28 339.872 960l-132.416 0 10.08-46.304 46.144 0 64.576-302.72 188.256 0c180.256 0 330.944-111.072 371.264-299.936C933.472 97.216 780.16 0 648.352 0L199.072 0 0 913.696l152.032 0L128 1024l263.648 0 64.576-302.72 188.256 0c180.256 0 330.944-111.072 371.264-299.936C1049.472 263.648 974.944 169.408 880.64 130.784zM422.336 186.08l129.12 0c64.576 0 107.616 55.552 88.8 124.96-16.128 69.44-83.392 124.96-150.624 124.96l-123.744 0L422.336 186.08z" p-id="1062"></path></svg>