<?xml version="1.0" standalone="no"?><!DOCTYPE svg PUBLIC "-//W3C//DTD SVG 1.1//EN" "http://www.w3.org/Graphics/SVG/1.1/DTD/svg11.dtd"><svg t="1518161556625" class="icon" style="" viewBox="0 0 1024 1024" version="1.1" xmlns="http://www.w3.org/2000/svg" p-id="2197" xmlns:xlink="http://www.w3.org/1999/xlink" width="200" height="200"><defs><style type="text/css"></style></defs><path d="M760.552727 605.090909A169.425455 169.425455 0 0 1 930.909091 740.072727a163.374545 163.374545 0 0 1-191.767273 188.043637 168.96 168.96 0 0 1-134.050909-167.563637V605.090909h155.461818z m0-46.545454H558.545455v202.007272A215.505455 215.505455 0 0 0 731.229091 977.454545a204.8 204.8 0 0 0 37.236364 3.258182A209.92 209.92 0 0 0 977.454545 732.625455 215.04 215.04 0 0 0 760.552727 558.545455zM418.909091 605.090909v155.461818A168.96 168.96 0 0 1 284.858182 930.909091a156.392727 156.392727 0 0 1-29.323637 2.792727A163.374545 163.374545 0 0 1 93.090909 740.072727 169.425455 169.425455 0 0 1 263.912727 605.090909H418.909091z m46.545454-46.545454H263.912727a215.04 215.04 0 0 0-215.04 174.08 209.92 209.92 0 0 0 243.898182 241.570909A215.505455 215.505455 0 0 0 465.454545 760.552727V558.545455zM768.465455 93.090909A163.374545 163.374545 0 0 1 930.909091 283.927273 169.425455 169.425455 0 0 1 760.087273 418.909091H605.090909V263.447273A168.96 168.96 0 0 1 739.141818 93.090909c9.774545-0.930909 19.549091-0.930909 29.323637 0z m0-46.545454a204.8 204.8 0 0 0-37.236364 3.258181A215.505455 215.505455 0 0 0 558.545455 263.447273V465.454545h201.541818A215.04 215.04 0 0 0 977.454545 291.374545 209.92 209.92 0 0 0 768.465455 46.545455zM255.534545 93.090909c9.774545-0.930909 19.549091-0.930909 29.323637 0A168.96 168.96 0 0 1 418.909091 263.447273V418.909091H263.447273A169.425455 169.425455 0 0 1 93.090909 283.927273 163.374545 163.374545 0 0 1 255.534545 93.090909z m0-46.545454a209.92 209.92 0 0 0-206.661818 244.82909A215.04 215.04 0 0 0 263.447273 465.454545H465.454545V263.447273a215.505455 215.505455 0 0 0-172.683636-214.574546 204.8 204.8 0 0 0-37.236364-2.327272z" p-id="2198"></path></svg>