<?xml version="1.0" standalone="no"?><!DOCTYPE svg PUBLIC "-//W3C//DTD SVG 1.1//EN" "http://www.w3.org/Graphics/SVG/1.1/DTD/svg11.dtd"><svg t="1517295346038" class="icon" style="" viewBox="0 0 1024 1024" version="1.1" xmlns="http://www.w3.org/2000/svg" p-id="1030" xmlns:xlink="http://www.w3.org/1999/xlink" width="200" height="200"><defs><style type="text/css"></style></defs><path d="M849.066667 87.466667H174.933333c-53.333333 0-96 38.4-96 87.466666V853.333333c0 49.066667 42.666667 87.466667 96 87.466667h674.133334c53.333333 0 96-38.4 96-87.466667V172.8c0-49.066667-42.666667-85.333333-96-85.333333z m0 795.733333H174.933333c-23.466667 0-42.666667-14.933333-42.666666-34.133333V264.533333c76.8 64 226.133333 110.933333 379.733333 110.933334 151.466667 0 302.933333-49.066667 379.733333-110.933334v586.666667c0 19.2-19.2 32-42.666666 32zM512 322.133333c-215.466667 0-379.733333-98.133333-379.733333-147.2v-2.133333c0-19.2 19.2-34.133333 42.666666-34.133333h674.133334c23.466667 0 42.666667 14.933333 42.666666 34.133333v2.133333c0 49.066667-164.266667 147.2-379.733333 147.2z" fill="" p-id="1031"></path><path d="M539.733333 614.4h91.733334v-53.333333h-89.6l81.066666-81.066667-38.4-36.266667-70.4 70.4-72.533333-70.4-36.266667 36.266667 78.933334 81.066667h-87.466667v53.333333h89.6v51.2h-96v53.333333h96V810.666667h53.333333v-91.733334h96v-53.333333h-96z" fill="" p-id="1032"></path></svg>