<?xml version="1.0" standalone="no"?><!DOCTYPE svg PUBLIC "-//W3C//DTD SVG 1.1//EN" "http://www.w3.org/Graphics/SVG/1.1/DTD/svg11.dtd"><svg t="1518161478648" class="icon" style="" viewBox="0 0 1024 1024" version="1.1" xmlns="http://www.w3.org/2000/svg" p-id="1728" xmlns:xlink="http://www.w3.org/1999/xlink" width="200" height="200"><defs><style type="text/css"></style></defs><path d="M302.545455 186.181818h465.454545v46.545455h-465.454545zM814.545455 977.454545h-558.545455c-37.236364 0-69.818182-32.581818-69.818182-69.818181V651.636364h46.545455v256c0 13.963636 9.309091 23.272727 23.272727 23.272727h558.545455c13.963636 0 23.272727-9.309091 23.272727-23.272727V651.636364h46.545454v256c0 37.236364-32.581818 69.818182-69.818181 69.818181z" p-id="1729"></path><path d="M819.2 93.090909c23.272727 0 41.890909 13.963636 46.545455 32.581818l51.2 176.872728v9.30909c13.963636 27.927273 13.963636 55.854545 9.30909 79.127273-9.309091 51.2-51.2 88.436364-107.054545 97.745455-51.2 9.309091-102.4-9.309091-134.981818-46.545455h-69.818182c-27.927273 32.581818-65.163636 51.2-107.054545 51.2s-74.472727-13.963636-102.4-46.545454H335.127273c-27.927273 32.581818-65.163636 51.2-107.054546 46.545454-9.309091 0-18.618182 0-27.927272-4.654545-51.2-9.309091-93.090909-46.545455-107.054546-97.745455-4.654545-23.272727 0-51.2 13.963636-79.127273L186.181818 121.018182c9.309091-18.618182 23.272727-27.927273 41.890909-27.927273h591.127273z m0-46.545454H228.072727c-37.236364 0-69.818182 23.272727-83.781818 55.854545L65.163636 293.236364C46.545455 325.818182 41.890909 363.054545 51.2 400.290909c13.963636 69.818182 69.818182 121.018182 144.290909 134.981818 13.963636 0 23.272727 4.654545 37.236364 4.654546 55.854545 0 107.054545-23.272727 144.290909-65.163637 37.236364 41.890909 88.436364 65.163636 144.290909 65.163637s107.054545-23.272727 144.290909-65.163637c37.236364 41.890909 88.436364 65.163636 144.290909 65.163637 13.963636 0 23.272727 0 37.236364-4.654546 69.818182-13.963636 125.672727-65.163636 139.636363-134.981818-4.654545-32.581818-9.309091-74.472727-23.272727-107.054545l-51.2-176.872728c-13.963636-41.890909-51.2-69.818182-93.090909-69.818181z" p-id="1730"></path></svg>